<?xml version="1.0" encoding="UTF-8" standalone="no"?>
<!-- Created with Inkscape (http://www.inkscape.org/) -->

<svg
   width="76.588005mm"
   height="18.265961mm"
   viewBox="0 0 76.588005 18.265961"
   version="1.1"
   id="svg5"
   sodipodi:docname="drawing.svg"
   inkscape:export-filename="logo.png"
   inkscape:export-xdpi="96"
   inkscape:export-ydpi="96"
   xmlns:inkscape="http://www.inkscape.org/namespaces/inkscape"
   xmlns:sodipodi="http://sodipodi.sourceforge.net/DTD/sodipodi-0.dtd"
   xmlns="http://www.w3.org/2000/svg"
   xmlns:svg="http://www.w3.org/2000/svg">
  <sodipodi:namedview
     id="namedview7"
     pagecolor="#ffffff"
     bordercolor="#000000"
     borderopacity="0.25"
     inkscape:showpageshadow="2"
     inkscape:pageopacity="0.0"
     inkscape:pagecheckerboard="0"
     inkscape:deskcolor="#d1d1d1"
     inkscape:document-units="mm"
     showgrid="false"
     inkscape:zoom="0.53228931"
     inkscape:cx="71.389748"
     inkscape:cy="-5.6360328"
     inkscape:window-width="1850"
     inkscape:window-height="1011"
     inkscape:window-x="70"
     inkscape:window-y="32"
     inkscape:window-maximized="1"
     inkscape:current-layer="text113-75-6" />
  <defs
     id="defs2" />
  <g
     inkscape:label="Layer 1"
     inkscape:groupmode="layer"
     id="layer1"
     transform="translate(-42.194757,-269.94155)">
    <g
       aria-label="Populook"
       id="text113-75-6"
       style="font-size:20.3181px;letter-spacing:-1.05833px;stroke-width:1.69317"
       transform="translate(-1.5272375,33.772101)">
      <path
         d="m 44.656628,250.77818 q -0.446998,0 -0.690815,-0.24381 -0.243818,-0.26414 -0.243818,-0.73146 v -12.53626 q 0,-0.46732 0.243818,-0.71114 0.264135,-0.24381 0.711133,-0.24381 h 4.835708 q 2.316263,0 3.555667,1.13781 1.259723,1.13781 1.259723,3.18994 0,2.07245 -1.259723,3.21026 -1.239404,1.13781 -3.555667,1.13781 h -3.901075 v 4.81539 q 0,0.46732 -0.243817,0.73146 -0.2235,0.24381 -0.711134,0.24381 z m 0.954951,-7.31451 h 3.657258 q 1.584812,0 2.377217,-0.71114 0.812724,-0.73145 0.812724,-2.11308 0,-1.38163 -0.812724,-2.07245 -0.792405,-0.71113 -2.377217,-0.71113 h -3.657258 z"
         style="font-weight:500;font-family:Nunito;-inkscape-font-specification:'Nunito Medium';fill:#333333;fill-opacity:1"
         id="path1639-1"
         inkscape:export-filename="../node/populook/src/assets/logo.svg"
         inkscape:export-xdpi="96"
         inkscape:export-ydpi="96" />
      <path
         d="m 59.100975,250.81882 q -1.462903,0 -2.539762,-0.62986 -1.07686,-0.62986 -1.666085,-1.788 -0.589224,-1.15813 -0.589224,-2.72262 0,-1.17845 0.325089,-2.11308 0.345408,-0.95495 0.975269,-1.62545 0.629861,-0.6705 1.503539,-1.01591 0.893997,-0.36572 1.991174,-0.36572 1.462903,0 2.539763,0.62986 1.076859,0.62986 1.666084,1.78799 0.589225,1.13782 0.589225,2.70231 0,1.17845 -0.345408,2.1334 -0.32509,0.95495 -0.954951,1.62545 -0.629861,0.6705 -1.523857,1.03622 -0.873678,0.34541 -1.970856,0.34541 z m 0,-1.4629 q 0.893997,0 1.544176,-0.42668 0.670497,-0.42668 1.015905,-1.23941 0.365726,-0.81272 0.365726,-2.01149 0,-1.78799 -0.792406,-2.72263 -0.792406,-0.93463 -2.133401,-0.93463 -0.873678,0 -1.544175,0.42668 -0.65018,0.40636 -1.015905,1.21909 -0.365726,0.81272 -0.365726,2.01149 0,1.78799 0.792406,2.74294 0.812724,0.93464 2.1334,0.93464 z"
         style="font-weight:500;font-family:Nunito;-inkscape-font-specification:'Nunito Medium';fill:#333333;fill-opacity:1"
         id="path1641-2" />
      <path
         d="m 66.129239,254.43544 q -0.42668,0 -0.670498,-0.24382 -0.243817,-0.24381 -0.243817,-0.69081 v -11.96736 q 0,-0.46732 0.243817,-0.69082 0.243818,-0.24382 0.670498,-0.24382 0.446998,0 0.670497,0.24382 0.243817,0.2235 0.243817,0.69082 v 1.84894 l -0.223499,-0.36572 q 0.32509,-1.1175 1.28004,-1.78799 0.954951,-0.6705 2.295946,-0.6705 1.320676,0 2.295945,0.62986 0.975269,0.60954 1.523857,1.76767 0.548589,1.13782 0.548589,2.72263 0,1.56449 -0.548589,2.74294 -0.52827,1.15813 -1.523857,1.788 -0.975269,0.60954 -2.295945,0.60954 -1.320677,0 -2.275628,-0.6705 -0.95495,-0.6705 -1.28004,-1.76767 h 0.223499 v 5.12016 q 0,0.447 -0.243817,0.69081 -0.243817,0.24382 -0.690815,0.24382 z m 3.84012,-5.07952 q 0.873679,0 1.523858,-0.42668 0.670497,-0.42668 1.036223,-1.23941 0.365726,-0.81272 0.365726,-2.01149 0,-1.78799 -0.792406,-2.72263 -0.792406,-0.93463 -2.133401,-0.93463 -0.893996,0 -1.564493,0.42668 -0.650179,0.40636 -1.015905,1.21909 -0.345408,0.81272 -0.345408,2.01149 0,1.78799 0.792406,2.74294 0.792406,0.93464 2.1334,0.93464 z"
         style="font-weight:500;font-family:Nunito;-inkscape-font-specification:'Nunito Medium';fill:#333333;fill-opacity:1"
         id="path1643-9" />
      <path
         d="m 79.618665,250.81882 q -1.198768,0 -2.011492,-0.447 -0.792406,-0.447 -1.17845,-1.32068 -0.386044,-0.87367 -0.386044,-2.19435 v -5.32334 q 0,-0.46732 0.223499,-0.69082 0.243817,-0.24382 0.690815,-0.24382 0.446999,0 0.690816,0.24382 0.243817,0.2235 0.243817,0.69082 v 5.32334 q 0,1.25972 0.507953,1.86926 0.507952,0.58923 1.605129,0.58923 1.219086,0 1.970856,-0.81272 0.772088,-0.81273 0.772088,-2.15372 v -4.81539 q 0,-0.46732 0.223499,-0.69082 0.243817,-0.24382 0.690815,-0.24382 0.446999,0 0.690816,0.24382 0.243817,0.2235 0.243817,0.69082 v 8.28978 q 0,0.95495 -0.893996,0.95495 -0.446999,0 -0.690816,-0.24381 -0.223499,-0.24382 -0.223499,-0.71114 v -1.76767 l 0.264135,0.3454 q -0.406362,1.17845 -1.320676,1.80832 -0.893996,0.60954 -2.113082,0.60954 z"
         style="font-weight:500;font-family:Nunito;-inkscape-font-specification:'Nunito Medium';fill:#333333;fill-opacity:1"
         id="path1645-3" />
      <path
         d="m 89.613394,250.81882 q -1.523857,0 -2.316263,-0.894 -0.792406,-0.91431 -0.792406,-2.62103 V 237.1041 q 0,-0.46732 0.243817,-0.69081 0.243817,-0.24382 0.670497,-0.24382 0.446998,0 0.690816,0.24382 0.243817,0.22349 0.243817,0.69081 v 10.05746 q 0,1.05654 0.42668,1.58481 0.446998,0.50796 1.259722,0.50796 0.182863,0 0.32509,0 0.142226,-0.0203 0.284453,-0.0406 0.223499,-0.0203 0.32509,0.12191 0.10159,0.14222 0.10159,0.5689 0,0.38605 -0.182863,0.60955 -0.162544,0.20318 -0.548588,0.26413 -0.182863,0.0203 -0.365726,0.0203 -0.182863,0.0203 -0.365726,0.0203 z"
         style="font-weight:500;font-family:Nunito;-inkscape-font-specification:'Nunito Medium';fill:#333333;fill-opacity:1"
         id="path1647-1" />
      <path
         d="m 95.666428,250.81882 q -1.462903,0 -2.539763,-0.62986 -1.076859,-0.62986 -1.666084,-1.788 -0.589225,-1.15813 -0.589225,-2.72262 0,-1.17845 0.32509,-2.11308 0.345407,-0.95495 0.975269,-1.62545 0.629861,-0.6705 1.503539,-1.01591 0.893996,-0.36572 1.991174,-0.36572 1.462903,0 2.539762,0.62986 1.07686,0.62986 1.666084,1.78799 0.589226,1.13782 0.589226,2.70231 0,1.17845 -0.34541,2.1334 -0.325088,0.95495 -0.954949,1.62545 -0.629861,0.6705 -1.523858,1.03622 -0.873678,0.34541 -1.970855,0.34541 z m 0,-1.4629 q 0.893996,0 1.544175,-0.42668 0.670498,-0.42668 1.015905,-1.23941 0.365726,-0.81272 0.365726,-2.01149 0,-1.78799 -0.792406,-2.72263 -0.792406,-0.93463 -2.1334,-0.93463 -0.873679,0 -1.544176,0.42668 -0.650179,0.40636 -1.015905,1.21909 -0.365726,0.81272 -0.365726,2.01149 0,1.78799 0.792406,2.74294 0.812724,0.93464 2.133401,0.93464 z"
         style="font-weight:500;font-family:Nunito;-inkscape-font-specification:'Nunito Medium';fill:#333333;fill-opacity:1"
         id="path1649-9" />
      <g
         aria-label="."
         id="text113-6-9-0-2-4"
         style="font-size:32.2095px;letter-spacing:-0.71311px;fill:#333333;fill-opacity:1;stroke-width:2.68412">
        <path
           d="m 95.682533,247.58886 q -0.837447,0 -1.385009,-0.54756 -0.547561,-0.54756 -0.547561,-1.38501 0,-0.83745 0.547561,-1.3528 0.547562,-0.51535 1.385009,-0.51535 0.901866,0 1.385008,0.51535 0.515352,0.51535 0.515352,1.3528 0,0.83745 -0.515352,1.38501 -0.483142,0.54756 -1.385008,0.54756 z"
           style="font-weight:500;font-family:Nunito;-inkscape-font-specification:'Nunito Medium';fill:#333333;fill-opacity:1"
           id="path2527" />
      </g>
      <g
         aria-label="."
         id="text113-6-9-0-2-7-8"
         style="font-size:32.2095px;letter-spacing:-0.71311px;fill:#333333;fill-opacity:1;stroke-width:2.68412">
        <path
           d="m 106.00232,247.58886 q -0.83745,0 -1.38501,-0.54756 -0.54756,-0.54756 -0.54756,-1.38501 0,-0.83745 0.54756,-1.3528 0.54756,-0.51535 1.38501,-0.51535 0.90187,0 1.38501,0.51535 0.51535,0.51535 0.51535,1.3528 0,0.83745 -0.51535,1.38501 -0.48314,0.54756 -1.38501,0.54756 z"
           style="font-weight:500;font-family:Nunito;-inkscape-font-specification:'Nunito Medium';fill:#333333;fill-opacity:1"
           id="path2530" />
      </g>
      <path
         d="m 105.98622,250.81882 q -1.4629,0 -2.53976,-0.62986 -1.07686,-0.62986 -1.66609,-1.788 -0.58922,-1.15813 -0.58922,-2.72262 0,-1.17845 0.32509,-2.11308 0.34541,-0.95495 0.97527,-1.62545 0.62986,-0.6705 1.50354,-1.01591 0.89399,-0.36572 1.99117,-0.36572 1.4629,0 2.53976,0.62986 1.07686,0.62986 1.66609,1.78799 0.58922,1.13782 0.58922,2.70231 0,1.17845 -0.3454,2.1334 -0.32509,0.95495 -0.95496,1.62545 -0.62986,0.6705 -1.52385,1.03622 -0.87368,0.34541 -1.97086,0.34541 z m 0,-1.4629 q 0.894,0 1.54418,-0.42668 0.67049,-0.42668 1.0159,-1.23941 0.36573,-0.81272 0.36573,-2.01149 0,-1.78799 -0.79241,-2.72263 -0.7924,-0.93463 -2.1334,-0.93463 -0.87368,0 -1.54417,0.42668 -0.65018,0.40636 -1.01591,1.21909 -0.36572,0.81272 -0.36572,2.01149 0,1.78799 0.7924,2.74294 0.81272,0.93464 2.1334,0.93464 z"
         style="font-weight:500;font-family:Nunito;-inkscape-font-specification:'Nunito Medium';fill:#333333;fill-opacity:1"
         id="path1651-5" />
      <path
         d="m 113.01449,250.77818 q -0.42668,0 -0.6705,-0.24381 -0.24382,-0.24382 -0.24382,-0.71114 V 237.1041 q 0,-0.46732 0.24382,-0.69081 0.24382,-0.24382 0.6705,-0.24382 0.44699,0 0.69081,0.24382 0.24382,0.22349 0.24382,0.69081 v 8.00533 h 0.0406 l 3.98234,-3.88075 q 0.30477,-0.30478 0.54859,-0.46732 0.24382,-0.16255 0.62986,-0.16255 0.38605,0 0.58923,0.20319 0.20318,0.18286 0.20318,0.48763 0,0.28445 -0.28445,0.56891 l -4.22617,4.10425 v -0.91431 l 4.61221,4.44966 q 0.28445,0.28446 0.26413,0.58923 0,0.30477 -0.22349,0.50795 -0.20319,0.18286 -0.54859,0.18286 -0.40637,0 -0.6705,-0.16254 -0.24382,-0.16255 -0.56891,-0.50795 l -4.30743,-4.06362 h -0.0406 v 3.77916 q 0,0.95495 -0.93463,0.95495 z"
         style="font-weight:500;font-family:Nunito;-inkscape-font-specification:'Nunito Medium';fill:#333333;fill-opacity:1"
         id="path1653-0" />
    </g>
  </g>
</svg>
